<?xml version="1.0" standalone="no"?><svg xmlns="http://www.w3.org/2000/svg" viewBox="0 0 1440 320"><path fill="#DF426A" fill-opacity="0.8" d="M0,192L24,176C48,160,96,128,144,106.7C192,85,240,75,288,106.7C336,139,384,213,432,202.7C480,192,528,96,576,53.3C624,11,672,21,720,37.3C768,53,816,75,864,117.3C912,160,960,224,1008,224C1056,224,1104,160,1152,144C1200,128,1248,160,1296,154.7C1344,149,1392,107,1416,85.3L1440,64L1440,0L1416,0C1392,0,1344,0,1296,0C1248,0,1200,0,1152,0C1104,0,1056,0,1008,0C960,0,912,0,864,0C816,0,768,0,720,0C672,0,624,0,576,0C528,0,480,0,432,0C384,0,336,0,288,0C240,0,192,0,144,0C96,0,48,0,24,0L0,0Z"></path></svg>